#!OML:ASF I:\Actors\actors\Patient Classification 2\Patient 1\Session 1\actor1.ASF
:FULLY-SPECIFIED
:DEGREES
521
root -0.63287 18.7322 5.69117 2.50847 -4.13298 -4.89917
lowerback 6.95555 0.445811 0.496362
upperback 1.92241 0.626923 0.0700118
thorax -1.9118 0.310472 -0.259694
lowerneck -1.93089 -1.53442 -1.53308
upperneck 9.92985 -2.5268 5.78761
head 3.68705 -1.08513 2.09873
rclavicle -2.5842e-014 1.51076e-014
rhumerus 5.37236 23.3456 -39.3041
rradius 125.393
rwrist -73.97
rhand 21.176 -65.663
rfingers 7.12502
rthumb 45.629 -88.9104
lclavicle -2.5842e-014 1.51076e-014
lhumerus -27.4118 -25.5649 85.3411
lradius 117.177
lwrist 15.6526
lhand -5.61662 -36.2051
lfingers 7.12502
lthumb 20.2009 -7.23545
rfemur 0 0 0
rtibia 0
rfoot 0 0
rtoes 0
lfemur -6.4936 -4.37816 -9.42579
ltibia 23.9513
lfoot -23.9609 15.1215
ltoes -55.2188
522
root -0.63411 18.7337 5.68481 2.53038 -4.14683 -4.8698
lowerback 7.1207 0.460624 0.483273
upperback 1.95677 0.644944 0.00871466
thorax -1.96749 0.319336 -0.3183
lowerneck -1.5451 -1.62298 -1.6115
upperneck 9.25143 -2.62609 5.99097
head 3.38749 -1.14575 2.17076
rclavicle -3.08116e-015 1.59028e-015
rhumerus 5.32263 22.8086 -39.4547
rradius 125.578
rwrist -74.1816
rhand 21.375 -65.6151
rfingers 7.12502
rthumb 45.8138 -88.7868
lclavicle -3.08116e-015 1.59028e-015
lhumerus -27.4505 -25.7203 85.2923
lradius 117.256
lwrist 15.845
lhand -5.817 -36.3816
lfingers 7.12502
lthumb 20.0083 -7.39176
rfemur 0 0 0
rtibia 0
rfoot 0 0
rtoes 0
lfemur -6.54207 -4.36486 -9.45097
ltibia 23.9538
lfoot -23.9358 15.1335
ltoes -55.2431
523
root -0.635399 18.7347 5.67506 2.56852 -4.15523 -4.88141
lowerback 7.33564 0.439818 0.467088
upperback 2.03104 0.616931 0.0127133
thorax -2.01085 0.305322 -0.304225
lowerneck -1.30831 -1.69212 -1.78452
upperneck 8.48942 -2.6848 6.13928
head 3.09049 -1.19093 2.24241
rclavicle -1.98785e-016 5.56597e-015
rhumerus 5.52373 22.1666 -39.4389
rradius 125.807
rwrist -74.5233
rhand 21.5384 -65.7059
rfingers 7.12502
rthumb 45.9654 -88.8148
lclavicle -1.98785e-016 5.56597e-015
lhumerus -27.3483 -25.6889 85.204
lradius 117.345
lwrist 15.8146
lhand -5.81826 -36.5242
lfingers 7.12502
lthumb 20.0071 -7.53421
rfemur 0 0 0
rtibia 0
rfoot 0 0
rtoes 0
lfemur -6.61118 -4.36142 -9.42241
ltibia 23.9465
lfoot -23.9198 15.1514
ltoes -55.2457
524
root -0.637162 18.7358 5.6633 2.6003 -4.14318 -4.87427
lowerback 7.57654 0.394303 0.398968
upperback 2.14557 0.552546 0.0363141
thorax -2.02796 0.273392 -0.237334
lowerneck -1.1726 -1.76707 -1.9927
upperneck 7.66816 -2.74685 6.29247
head 2.79745 -1.23792 2.32209
rclavicle 3.08116e-015 8.74653e-015
rhumerus 5.83167 21.4963 -39.4173
rradius 126.004
rwrist -74.9396
rhand 21.9417 -65.7516
rfingers 7.12502
rthumb 46.3394 -88.7035
lclavicle 3.08116e-015 8.74653e-015
lhumerus -27.1355 -25.5072 85.0281
lradius 117.42
lwrist 15.5936
lhand -5.66938 -36.5477
lfingers 7.12502
lthumb 20.1502 -7.57275
rfemur 0 0 0
rtibia 0
rfoot 0 0
rtoes 0
lfemur -6.68943 -4.34288 -9.4086
ltibia 23.9403
lfoot -23.859 15.152
ltoes -55.2386
525
root -0.637682 18.7367 5.65234 2.58967 -4.15967 -4.83313
lowerback 7.84942 0.383501 0.345965
upperback 2.25736 0.533969 0.00726442
thorax -2.06439 0.264185 -0.237389
lowerneck -1.02074 -1.89001 -2.11709
upperneck 6.88452 -2.87858 6.45832
head 2.51986 -1.3166 2.39025
rclavicle 1.59028e-014 4.77083e-015
rhumerus 6.00943 20.8395 -39.4808
rradius 126.167
rwrist -75.3268
rhand 22.5513 -65.7791
rfingers 7.12502
rthumb 46.904 -88.4875
lclavicle 1.59028e-014 4.77083e-015
lhumerus -26.9918 -25.478 84.8638
lradius 117.513
lwrist 15.6152
lhand -5.71227 -36.5199
lfingers 7.12502
lthumb 20.1089 -7.54062
rfemur 0 0 0
rtibia 0
rfoot 0 0
rtoes 0
lfemur -6.71707 -4.29927 -9.44464
ltibia 23.9394
lfoot -23.7828 15.1266
ltoes -55.2165
526
root -0.637591 18.7376 5.64109 2.58738 -4.21217 -4.81175
lowerback 8.11649 0.386018 0.342022
upperback 2.32689 0.536782 -0.0236263
thorax -2.14039 0.265412 -0.269058
lowerneck -0.771008 -2.00347 -2.29709
upperneck 6.13093 -2.99811 6.64494
head 2.23912 -1.39174 2.47802
rclavicle -1.55052e-014 6.36111e-015
rhumerus 6.14194 20.2307 -39.5492
rradius 126.344
rwrist -75.7914
rhand 23.0858 -65.8788
rfingers 7.12502
rthumb 47.3981 -88.3676
lclavicle -1.55052e-014 6.36111e-015
lhumerus -26.9538 -25.5012 84.787
lradius 117.657
lwrist 15.7909
lhand -5.81012 -36.3641
lfingers 7.12502
lthumb 20.0149 -7.37489
rfemur 0 0 0
rtibia 0
rfoot 0 0
rtoes 0
lfemur -6.73665 -4.26811 -9.4681
ltibia 23.9315
lfoot -23.7477 15.1448
ltoes -55.2213
527
root -0.638552 18.739 5.62935 2.61931 -4.28052 -4.80011
lowerback 8.36145 0.363489 0.327235
upperback 2.34199 0.506121 -0.0300611
thorax -2.26075 0.249836 -0.266169
lowerneck -0.419086 -2.07347 -2.52863
upperneck 5.42097 -3.05907 6.80005
head 1.95488 -1.44089 2.56856
rclavicle -3.27001e-014 1.98785e-014
rhumerus 6.35329 19.7245 -39.5976
rradius 126.515
rwrist -76.2642
rhand 23.4823 -65.8989
rfingers 7.12502
rthumb 47.7642 -88.221
lclavicle -3.27001e-014 1.98785e-014
lhumerus -26.9995 -25.4024 84.731
lradius 117.774
lwrist 15.8107
lhand -5.82961 -36.3265
lfingers 7.12502
lthumb 19.9961 -7.33535
rfemur 0 0 0
rtibia 0
rfoot 0 0
rtoes 0
lfemur -6.77927 -4.26683 -9.47841
ltibia 23.9114
lfoot -23.7637 15.2132
ltoes -55.2474
528
root -0.639691 18.7401 5.61818 2.65085 -4.32785 -4.7665
lowerback 8.6141 0.339271 0.289272
upperback 2.35917 0.47094 -0.0439051
thorax -2.38331 0.2321 -0.257265
lowerneck -0.0894817 -2.18202 -2.6634
upperneck 4.73251 -3.17018 6.84768
head 1.68224 -1.51416 2.60596
rclavicle 2.78299e-015 1.59028e-015
rhumerus 6.61186 19.2215 -39.6344
rradius 126.654
rwrist -76.6173
rhand 23.8672 -65.7469
rfingers 7.12502
rthumb 48.1191 -87.9039
lclavicle 2.78299e-015 1.59028e-015
lhumerus -27.0444 -25.3196 84.6419
lradius 117.833
lwrist 15.8089
lhand -5.79847 -36.516
lfingers 7.12502
lthumb 20.0261 -7.52795
rfemur 0 0 0
rtibia 0
rfoot 0 0
rtoes 0
lfemur -6.82906 -4.1834 -9.5003
ltibia 23.8867
lfoot -23.7156 15.1828
ltoes -55.2709
529
root -0.640947 18.7417 5.60713 2.69229 -4.33752 -4.7211
lowerback 8.83556 0.317299 0.235287
upperback 2.40986 0.43694 -0.058093
thorax -2.45398 0.215173 -0.239252
lowerneck 0.149953 -2.35553 -2.8044
upperneck 4.05513 -3.37015 6.92404
head 1.4373 -1.62934 2.65425
rclavicle -3.77691e-015 1.43125e-014
rhumerus 6.88365 18.7057 -39.69
rradius 126.783
rwrist -76.9652
rhand 24.4039 -65.645
rfingers 7.12502
rthumb 48.6133 -87.5665
lclavicle -3.77691e-015 1.43125e-014
lhumerus -26.9921 -25.2821 84.5254
lradius 117.887
lwrist 15.8662
lhand -5.74949 -36.5692
lfingers 7.12502
lthumb 20.0732 -7.58612
rfemur 0 0 0
rtibia 0
rfoot 0 0
rtoes 0
lfemur -6.90979 -4.00969 -9.52095
ltibia 23.8617
lfoot -23.5763 15.0531
ltoes -55.2849
